# xmcd
#
# Track frame offsets:
#       150
#       15508
#       31392
#       57046
#       68742
#       83475
#       102776
#       117597
#       130612
#       152181
#       166132
#       184096
#       199715
#       213884
#       226273
#       241741
#       261042
#       275936
#
# Disc length: 4035 seconds
#
# Revision: 0
# Processed by: cddbd v1.4PL0 Copyright (c) Steve Scherf et al.
# Submitted via: WhereIsIt 3.20
#
DISCID=e70fc112
DTITLE=Various Artist - zabawa non - stop
DYEAR=1900
DGENRE=
TTITLE0=kayah and bregovic - prawy do lewego
TTITLE1=brathanki - czerwone korale
TTITLE2=golec uorkiestra - kocham ciebie dziewczyno
TTITLE3=szwagierkolaska - u cioci na imieninach
TTITLE4=t.love - chlopaki nie placza
TTITLE5=kukiz i piersi - caluj mnie
TTITLE6=big cyc - makumba
TTITLE7=czarno - czarni - nogi
TTITLE8=robert chojnacki - budzikom smierc
TTITLE9=urszula - konik na biegunach
TTITLE10=formacja niezywych schabuff - lato
TTITLE11=norbi - kobiety sa gorace
TTITLE12=wojciech gassowski - gdzie sie podzialy tamte prywatki
TTITLE13=czerwone gitary - nie zadzieraj nosa
TTITLE14=bolter - daj mi te noc
TTITLE15=krzysztof krawczyk - za toba pojde jak na bal
TTITLE16=sedzia dread
TTITLE17=de mono - kochac inaczej
EXTD=
EXTT0=
EXTT1=
EXTT2=
EXTT3=
EXTT4=
EXTT5=
EXTT6=
EXTT7=
EXTT8=
EXTT9=
EXTT10=
EXTT11=
EXTT12=
EXTT13=
EXTT14=
EXTT15=
EXTT16=
EXTT17=
PLAYORDER=
